<svg xmlns="http://www.w3.org/2000/svg" xmlns:xlink="http://www.w3.org/1999/xlink" width="500" zoomAndPan="magnify" viewBox="0 0 375 374.999991" height="500" preserveAspectRatio="xMidYMid meet" version="1.0"><defs><g/><clipPath id="ae3dcb9d59"><path d="M 110 132.664062 L 177 132.664062 L 177 234 L 110 234 Z M 110 132.664062 " clip-rule="nonzero"/></clipPath><clipPath id="48d03b72a4"><path d="M 195 132.664062 L 262 132.664062 L 262 234 L 195 234 Z M 195 132.664062 " clip-rule="nonzero"/></clipPath><clipPath id="24f1dc3ea6"><path d="M 86.332031 164 L 162.296875 164 L 162.296875 265.414062 L 86.332031 265.414062 Z M 86.332031 164 " clip-rule="nonzero"/></clipPath><clipPath id="8501898bf3"><path d="M 210.515625 164 L 286.519531 164 L 286.519531 265.414062 L 210.515625 265.414062 Z M 210.515625 164 " clip-rule="nonzero"/></clipPath><clipPath id="8ef959de6e"><path d="M 127.6875 103.605469 L 228 103.605469 L 228 137.355469 L 127.6875 137.355469 Z M 127.6875 103.605469 " clip-rule="nonzero"/></clipPath><clipPath id="596278cdcf"><path d="M 188 104 L 246.1875 104 L 246.1875 137 L 188 137 Z M 188 104 " clip-rule="nonzero"/></clipPath></defs><path stroke-linecap="butt" transform="matrix(0.7502, 0, 0, 0.75, 143.030767, 186.749988)" fill="none" stroke-linejoin="miter" d="M 0.000643685 0.500016 L 116.979815 0.500016 " stroke="#ffffff" stroke-width="1" stroke-opacity="1" stroke-miterlimit="4"/><g clip-path="url(#ae3dcb9d59)"><path fill="#ffffff" d="M 148.757812 228.621094 C 155.992188 228.621094 166.320312 229.539062 176.910156 233.5625 C 170.773438 230.210938 159.054688 225.234375 143.570312 225.234375 C 141.570312 225.234375 139.539062 225.320312 137.53125 225.484375 L 137.160156 225.515625 L 116.222656 138.308594 L 116.667969 138.222656 C 121.632812 137.261719 126.65625 136.773438 131.59375 136.773438 C 153.09375 136.773438 169.179688 146.003906 176.78125 151.433594 C 159.660156 135.226562 135.769531 132.664062 122.398438 132.664062 C 116.542969 132.664062 112.300781 133.148438 110.945312 133.324219 L 133.15625 230.058594 C 134.757812 229.726562 140.707031 228.621094 148.757812 228.621094 " fill-opacity="1" fill-rule="nonzero"/></g><g clip-path="url(#48d03b72a4)"><path fill="#ffffff" d="M 224.097656 228.621094 C 216.863281 228.621094 206.53125 229.539062 195.945312 233.5625 C 202.082031 230.210938 213.800781 225.234375 229.285156 225.234375 C 231.28125 225.234375 233.3125 225.320312 235.324219 225.484375 L 235.695312 225.515625 L 256.632812 138.308594 L 256.1875 138.222656 C 251.222656 137.261719 246.199219 136.773438 241.261719 136.773438 C 219.761719 136.773438 203.675781 146.003906 196.074219 151.433594 C 213.195312 135.226562 237.085938 132.664062 250.457031 132.664062 C 256.3125 132.664062 260.554688 133.148438 261.910156 133.324219 L 239.699219 230.058594 C 238.097656 229.726562 232.148438 228.621094 224.097656 228.621094 " fill-opacity="1" fill-rule="nonzero"/></g><path fill="#ffffff" d="M 124.78125 240.6875 C 134.773438 236.820312 145.128906 234.855469 155.570312 234.855469 C 162.304688 234.855469 167.945312 235.695312 171.988281 236.566406 C 165.175781 234.25 157.398438 233.082031 148.777344 233.082031 C 137.609375 233.082031 129.058594 235.121094 128.976562 235.144531 L 128.554688 235.246094 L 128.453125 234.828125 L 106.917969 149.367188 L 107.347656 149.269531 C 108.945312 148.902344 111.089844 148.605469 112.980469 148.347656 L 113.484375 148.277344 L 112.40625 143.585938 C 107.164062 143.839844 102.84375 144.394531 101.453125 144.585938 L 124.78125 240.6875 " fill-opacity="1" fill-rule="nonzero"/><path fill="#ffffff" d="M 248.070312 240.6875 C 238.082031 236.820312 227.726562 234.855469 217.285156 234.855469 C 210.546875 234.855469 204.910156 235.695312 200.867188 236.566406 C 207.679688 234.25 215.457031 233.082031 224.078125 233.082031 C 235.246094 233.082031 243.792969 235.121094 243.878906 235.144531 L 244.296875 235.246094 L 244.402344 234.828125 L 265.9375 149.367188 L 265.507812 149.269531 C 263.910156 148.902344 261.765625 148.605469 259.875 148.347656 L 259.371094 148.277344 L 260.445312 143.585938 C 265.691406 143.839844 270.011719 144.394531 271.402344 144.585938 L 248.070312 240.6875 " fill-opacity="1" fill-rule="nonzero"/><path fill="#ffffff" d="M 97.042969 169.683594 L 117.734375 252.347656 C 139.511719 241.851562 156.914062 239.640625 167.714844 239.640625 C 168.863281 239.640625 169.9375 239.664062 170.925781 239.707031 C 167.15625 239.101562 163.25 238.796875 159.242188 238.796875 C 138.871094 238.796875 122.148438 246.699219 121.980469 246.777344 L 121.503906 247.007812 L 99.226562 161.191406 L 99.660156 161.089844 C 101.089844 160.75 102.585938 160.445312 104.332031 160.144531 L 103.398438 156.285156 L 103.179688 155.398438 C 98.351562 155.6875 94.910156 156.230469 93.726562 156.433594 L 95.5625 163.765625 L 97.042969 169.683594 " fill-opacity="1" fill-rule="nonzero"/><path fill="#ffffff" d="M 275.8125 169.683594 L 255.117188 252.347656 C 233.34375 241.851562 215.941406 239.640625 205.144531 239.640625 C 203.988281 239.640625 202.917969 239.664062 201.929688 239.707031 C 205.699219 239.101562 209.605469 238.796875 213.613281 238.796875 C 233.984375 238.796875 250.707031 246.699219 250.871094 246.777344 L 251.351562 247.007812 L 273.625 161.191406 L 273.195312 161.089844 C 271.765625 160.75 270.269531 160.445312 268.519531 160.144531 L 269.457031 156.285156 L 269.671875 155.398438 C 274.503906 155.6875 277.945312 156.230469 279.128906 156.433594 L 277.292969 163.765625 L 275.8125 169.683594 " fill-opacity="1" fill-rule="nonzero"/><g clip-path="url(#24f1dc3ea6)"><path fill="#ffffff" d="M 86.332031 165.105469 L 111.578125 265.425781 C 112.972656 264.320312 114.460938 263.214844 116.011719 262.132812 C 132.664062 250.507812 152.078125 245.113281 162.113281 242.933594 C 139.742188 245.070312 120.875 254.863281 115.234375 258.058594 L 114.738281 258.335938 L 91.835938 169.863281 L 92.265625 169.761719 C 93.371094 169.496094 94.53125 169.257812 95.972656 168.996094 L 94.808594 164.332031 L 94.757812 164.136719 C 90.472656 164.4375 87.429688 164.917969 86.332031 165.105469 " fill-opacity="1" fill-rule="nonzero"/></g><g clip-path="url(#8501898bf3)"><path fill="#ffffff" d="M 286.523438 165.105469 L 261.277344 265.425781 C 259.882812 264.320312 258.390625 263.214844 256.84375 262.132812 C 240.191406 250.507812 220.777344 245.113281 210.742188 242.933594 C 233.113281 245.070312 251.980469 254.863281 257.621094 258.058594 L 258.117188 258.335938 L 281.019531 169.863281 L 280.589844 169.761719 C 279.484375 169.496094 278.324219 169.257812 276.878906 168.996094 L 278.046875 164.332031 L 278.097656 164.136719 C 282.382812 164.4375 285.421875 164.917969 286.523438 165.105469 " fill-opacity="1" fill-rule="nonzero"/></g><g clip-path="url(#8ef959de6e)"><path fill="#ffffff" d="M 129.488281 137.027344 L 177.824219 106.027344 C 177.824219 106.027344 226.15625 137.027344 226.15625 137.027344 C 226.65625 137.347656 227.324219 137.207031 227.648438 136.710938 C 227.972656 136.214844 227.828125 135.550781 227.328125 135.230469 C 227.328125 135.230469 178.410156 103.855469 178.410156 103.855469 C 178.054688 103.625 177.59375 103.625 177.238281 103.855469 C 177.238281 103.855469 128.316406 135.230469 128.316406 135.230469 C 127.816406 135.550781 127.675781 136.214844 127.996094 136.710938 C 128.320312 137.207031 128.988281 137.347656 129.488281 137.027344 Z M 129.488281 137.027344 " fill-opacity="1" fill-rule="evenodd"/></g><g clip-path="url(#596278cdcf)"><path fill="#ffffff" d="M 189.773438 112.367188 L 198.664062 106.664062 C 198.664062 106.664062 244.359375 136.382812 244.359375 136.382812 C 244.859375 136.707031 245.527344 136.570312 245.855469 136.074219 C 246.179688 135.582031 246.042969 134.917969 245.542969 134.59375 C 245.542969 134.59375 199.257812 104.492188 199.257812 104.492188 C 198.902344 104.257812 198.441406 104.257812 198.082031 104.488281 C 198.082031 104.488281 194.144531 107.011719 188.601562 110.570312 C 188.101562 110.890625 187.957031 111.554688 188.28125 112.050781 C 188.601562 112.546875 189.273438 112.6875 189.773438 112.367188 Z M 189.773438 112.367188 " fill-opacity="1" fill-rule="evenodd"/></g><path fill="#ffffff" d="M 155.742188 119.226562 L 155.742188 111.144531 C 155.742188 110.554688 155.261719 110.078125 154.667969 110.078125 L 145.671875 110.078125 C 145.078125 110.078125 144.597656 110.554688 144.597656 111.144531 L 144.597656 125.371094 C 144.597656 125.960938 145.078125 126.4375 145.671875 126.4375 C 146.265625 126.4375 146.75 125.960938 146.75 125.371094 L 146.75 112.210938 C 146.75 112.210938 153.589844 112.210938 153.589844 112.210938 L 153.589844 119.226562 C 153.589844 119.816406 154.074219 120.292969 154.667969 120.292969 C 155.261719 120.292969 155.742188 119.816406 155.742188 119.226562 Z M 155.742188 119.226562 " fill-opacity="1" fill-rule="evenodd"/><g fill="#ffffff" fill-opacity="1"><g transform="translate(129.150963, 178.560178)"><g><path d="M 9.8125 0 L 12.824219 0 L 8.644531 -6.6875 C 10.140625 -7.105469 12.03125 -8.183594 12.03125 -10.910156 C 12.03125 -15.398438 6.886719 -15.398438 6.886719 -15.398438 L 1.761719 -15.398438 L 1.761719 -12.824219 L 4.203125 -8.976562 L 1.761719 -8.976562 L 1.761719 0 L 4.332031 0 L 4.332031 -6.421875 L 5.808594 -6.421875 Z M 7.214844 -8.996094 L 4.816406 -12.824219 L 6.886719 -12.824219 C 6.886719 -12.824219 9.457031 -12.824219 9.457031 -10.910156 C 9.457031 -9.394531 7.898438 -9.0625 7.214844 -8.996094 Z M 7.214844 -8.996094 "/></g></g></g><g fill="#ffffff" fill-opacity="1"><g transform="translate(142.612567, 178.560178)"><g><path d="M 8.84375 -1.78125 L 9.523438 0 L 12.296875 0 L 6.136719 -15.839844 L 0 0 L 2.773438 0 L 3.429688 -1.78125 Z M 4.265625 -4.003906 L 6.136719 -9.347656 L 8.007812 -4.003906 Z M 4.265625 -4.003906 "/></g></g></g><g fill="#ffffff" fill-opacity="1"><g transform="translate(154.908373, 178.560178)"><g><path d="M 7.480469 -7.566406 L 13.835938 -15.398438 L 10.625 -15.398438 L 4.3125 -7.632812 L 4.3125 -15.398438 L 1.738281 -15.398438 L 1.738281 0 L 4.3125 0 L 4.3125 -4.222656 L 5.761719 -5.851562 L 10.515625 0 L 13.878906 0 Z M 7.480469 -7.566406 "/></g></g></g><g fill="#ffffff" fill-opacity="1"><g transform="translate(169.117837, 178.560178)"><g><path d="M 7.5 0.21875 C 10.777344 0.21875 13.285156 -1.648438 13.285156 -4.925781 L 13.285156 -15.398438 L 10.710938 -15.398438 L 10.710938 -4.925781 C 10.710938 -3.210938 9.105469 -2.355469 7.5 -2.355469 C 5.875 -2.355469 4.445312 -3.144531 4.3125 -4.925781 L 4.3125 -15.398438 L 1.738281 -15.398438 L 1.738281 -4.925781 C 1.738281 -1.761719 4.332031 0.21875 7.5 0.21875 Z M 7.5 0.21875 "/></g></g></g><g fill="#ffffff" fill-opacity="1"><g transform="translate(184.141159, 178.560178)"><g><path d="M 18.410156 0 L 18.410156 -15.421875 L 15.792969 -15.421875 L 10.183594 -3.429688 L 4.332031 -15.421875 L 1.714844 -15.421875 L 1.714844 0 L 4.289062 0 L 4.289062 -9.65625 L 8.996094 0 L 11.417969 0 L 15.839844 -9.457031 L 15.839844 0 Z M 18.410156 0 "/></g></g></g><g fill="#ffffff" fill-opacity="1"><g transform="translate(204.289568, 178.560178)"><g><path d="M 8.84375 -1.78125 L 9.523438 0 L 12.296875 0 L 6.136719 -15.839844 L 0 0 L 2.773438 0 L 3.429688 -1.78125 Z M 4.265625 -4.003906 L 6.136719 -9.347656 L 8.007812 -4.003906 Z M 4.265625 -4.003906 "/></g></g></g><g fill="#ffffff" fill-opacity="1"><g transform="translate(216.585374, 178.560178)"><g><path d="M 14.5625 0 L 14.5625 -15.398438 L 12.011719 -15.398438 L 12.011719 -4.445312 L 4.332031 -15.398438 L 1.738281 -15.398438 L 1.738281 0 L 4.3125 0 L 4.3125 -10.953125 L 11.964844 0 Z M 14.5625 0 "/></g></g></g><g fill="#ffffff" fill-opacity="1"><g transform="translate(232.906468, 178.560178)"><g><path d="M 4.3125 -12.824219 L 12.011719 -12.824219 L 12.011719 -15.398438 L 1.738281 -15.398438 L 1.738281 0 L 12.011719 0 L 12.011719 -2.574219 L 4.3125 -2.574219 L 4.3125 -6.421875 L 10.710938 -6.421875 L 10.710938 -8.976562 L 4.3125 -8.976562 Z M 4.3125 -12.824219 "/></g></g></g><g fill="#ffffff" fill-opacity="1"><g transform="translate(150.271577, 204.213791)"><g><path d="M 1.90625 -6.15625 C 1.789062 -6.4375 1.734375 -6.75 1.734375 -7.09375 C 1.734375 -7.757812 1.9375 -8.304688 2.34375 -8.734375 C 2.757812 -9.160156 3.269531 -9.375 3.875 -9.375 C 4.488281 -9.375 5 -9.179688 5.40625 -8.796875 C 5.820312 -8.410156 6.03125 -7.878906 6.03125 -7.203125 C 6.03125 -6.523438 5.816406 -5.976562 5.390625 -5.5625 C 4.972656 -5.144531 4.46875 -4.9375 3.875 -4.9375 C 2.894531 -4.9375 2.238281 -5.34375 1.90625 -6.15625 Z M 1.90625 -6.15625 "/></g></g></g><g fill="#ffffff" fill-opacity="1"><g transform="translate(158.062627, 204.213791)"><g/></g></g><g fill="#ffffff" fill-opacity="1"><g transform="translate(163.093995, 204.213791)"><g><path d="M 7.390625 -10.765625 L 2.484375 -10.765625 L 2.484375 -6.34375 L 7.03125 -6.34375 L 6.953125 -5.328125 L 2.484375 -5.328125 L 2.484375 -1.015625 L 7.8125 -1.015625 L 7.71875 0 L 1.34375 0 L 1.34375 -11.78125 L 7.46875 -11.78125 Z M 7.390625 -10.765625 "/></g></g></g><g fill="#ffffff" fill-opacity="1"><g transform="translate(171.574962, 204.213791)"><g><path d="M 2.109375 -7.484375 C 2.941406 -8.097656 3.738281 -8.425781 4.5 -8.46875 C 5.175781 -8.46875 5.695312 -8.378906 6.0625 -8.203125 C 6.4375 -8.035156 6.742188 -7.796875 6.984375 -7.484375 C 7.234375 -7.179688 7.359375 -6.75 7.359375 -6.1875 L 7.359375 0 L 6.265625 0 L 6.265625 -5.90625 C 6.265625 -6.320312 6.171875 -6.640625 5.984375 -6.859375 C 5.628906 -7.273438 5.082031 -7.484375 4.34375 -7.484375 C 3.632812 -7.453125 2.890625 -7.222656 2.109375 -6.796875 L 2.109375 0 L 1.015625 0 L 1.015625 -8.40625 L 2.109375 -8.5 Z M 2.109375 -7.484375 "/></g></g></g><g fill="#ffffff" fill-opacity="1"><g transform="translate(180.106422, 204.213791)"><g><path d="M 2.390625 -3.25 C 1.554688 -3.664062 1.140625 -4.445312 1.140625 -5.59375 C 1.140625 -6.53125 1.460938 -7.242188 2.109375 -7.734375 C 2.765625 -8.234375 3.597656 -8.484375 4.609375 -8.484375 C 4.878906 -8.484375 5.210938 -8.453125 5.609375 -8.390625 L 8.765625 -8.484375 L 8.734375 -7.84375 L 6.90625 -7.84375 C 7.519531 -7.382812 7.828125 -6.691406 7.828125 -5.765625 C 7.828125 -4.835938 7.515625 -4.125 6.890625 -3.625 C 6.273438 -3.125 5.484375 -2.875 4.515625 -2.875 C 3.878906 -2.875 3.351562 -2.929688 2.9375 -3.046875 C 2.726562 -2.847656 2.625 -2.613281 2.625 -2.34375 C 2.625 -1.957031 2.832031 -1.679688 3.25 -1.515625 C 3.675781 -1.347656 4.175781 -1.222656 4.75 -1.140625 C 6.007812 -0.972656 6.921875 -0.738281 7.484375 -0.4375 C 8.296875 0.0078125 8.703125 0.695312 8.703125 1.625 C 8.703125 2.5625 8.257812 3.253906 7.375 3.703125 C 6.695312 4.035156 5.878906 4.203125 4.921875 4.203125 C 3.972656 4.203125 3.238281 4.128906 2.71875 3.984375 C 1.363281 3.597656 0.6875 2.867188 0.6875 1.796875 C 0.6875 0.734375 1.285156 -0.164062 2.484375 -0.90625 C 2.015625 -1.257812 1.78125 -1.664062 1.78125 -2.125 C 1.78125 -2.582031 1.984375 -2.957031 2.390625 -3.25 Z M 7.609375 1.609375 C 7.609375 0.878906 7.125 0.375 6.15625 0.09375 C 5.882812 0.0195312 5.398438 -0.0703125 4.703125 -0.1875 C 4.015625 -0.300781 3.472656 -0.4375 3.078125 -0.59375 C 2.210938 0.125 1.78125 0.820312 1.78125 1.5 C 1.78125 1.789062 1.820312 2.03125 1.90625 2.21875 C 2 2.40625 2.160156 2.570312 2.390625 2.71875 C 2.878906 3.0625 3.628906 3.234375 4.640625 3.234375 C 5.960938 3.234375 6.863281 2.953125 7.34375 2.390625 C 7.519531 2.171875 7.609375 1.910156 7.609375 1.609375 Z M 6.6875 -5.8125 C 6.6875 -7 5.976562 -7.59375 4.5625 -7.59375 C 3.882812 -7.59375 3.328125 -7.4375 2.890625 -7.125 C 2.453125 -6.8125 2.234375 -6.335938 2.234375 -5.703125 C 2.234375 -5.078125 2.390625 -4.597656 2.703125 -4.265625 C 3.023438 -3.929688 3.554688 -3.765625 4.296875 -3.765625 C 5.046875 -3.765625 5.628906 -3.941406 6.046875 -4.296875 C 6.472656 -4.660156 6.6875 -5.164062 6.6875 -5.8125 Z M 6.6875 -5.8125 "/></g></g></g><g fill="#ffffff" fill-opacity="1"><g transform="translate(189.714831, 204.213791)"><g><path d="M 1.171875 0 L 1.171875 -12.53125 L 2.265625 -12.625 L 2.265625 0 Z M 1.171875 0 "/></g></g></g><g fill="#ffffff" fill-opacity="1"><g transform="translate(192.659612, 204.213791)"><g><path d="M 2.453125 -8.5 L 2.453125 0 L 1.359375 0 L 1.359375 -8.40625 Z M 1.859375 -10.671875 C 1.640625 -10.671875 1.46875 -10.742188 1.34375 -10.890625 C 1.226562 -11.035156 1.171875 -11.21875 1.171875 -11.4375 C 1.171875 -11.664062 1.234375 -11.847656 1.359375 -11.984375 C 1.492188 -12.128906 1.671875 -12.203125 1.890625 -12.203125 C 2.117188 -12.203125 2.300781 -12.128906 2.4375 -11.984375 C 2.582031 -11.847656 2.65625 -11.65625 2.65625 -11.40625 C 2.65625 -11.164062 2.578125 -10.984375 2.421875 -10.859375 C 2.273438 -10.734375 2.085938 -10.671875 1.859375 -10.671875 Z M 1.859375 -10.671875 "/></g></g></g><g fill="#ffffff" fill-opacity="1"><g transform="translate(196.327966, 204.213791)"><g><path d="M 5.78125 -7.296875 C 5.382812 -7.429688 4.835938 -7.5 4.140625 -7.5 C 3.441406 -7.5 2.898438 -7.375 2.515625 -7.125 C 2.140625 -6.882812 1.953125 -6.582031 1.953125 -6.21875 C 1.953125 -5.851562 2.0625 -5.585938 2.28125 -5.421875 C 2.507812 -5.253906 2.789062 -5.109375 3.125 -4.984375 C 3.46875 -4.867188 3.835938 -4.753906 4.234375 -4.640625 C 4.628906 -4.523438 4.992188 -4.378906 5.328125 -4.203125 C 6.117188 -3.796875 6.515625 -3.195312 6.515625 -2.40625 C 6.515625 -1.613281 6.238281 -1.003906 5.6875 -0.578125 C 5.144531 -0.148438 4.351562 0.0625 3.3125 0.0625 C 2.789062 0.0625 2.285156 0.0078125 1.796875 -0.09375 C 1.304688 -0.195312 0.929688 -0.34375 0.671875 -0.53125 L 1.046875 -1.4375 C 1.304688 -1.207031 1.828125 -1.039062 2.609375 -0.9375 C 2.859375 -0.90625 3.109375 -0.890625 3.359375 -0.890625 C 3.941406 -0.890625 4.429688 -1.007812 4.828125 -1.25 C 5.222656 -1.488281 5.421875 -1.859375 5.421875 -2.359375 C 5.421875 -2.691406 5.304688 -2.953125 5.078125 -3.140625 C 4.859375 -3.335938 4.578125 -3.5 4.234375 -3.625 C 3.898438 -3.75 3.535156 -3.863281 3.140625 -3.96875 C 2.742188 -4.070312 2.375 -4.203125 2.03125 -4.359375 C 1.695312 -4.523438 1.414062 -4.738281 1.1875 -5 C 0.96875 -5.269531 0.859375 -5.628906 0.859375 -6.078125 C 0.859375 -6.804688 1.140625 -7.390625 1.703125 -7.828125 C 2.265625 -8.265625 3.015625 -8.484375 3.953125 -8.484375 C 4.191406 -8.484375 4.429688 -8.46875 4.671875 -8.4375 C 4.921875 -8.40625 5.144531 -8.378906 5.34375 -8.359375 L 6.0625 -8.25 Z M 5.78125 -7.296875 "/></g></g></g><g fill="#ffffff" fill-opacity="1"><g transform="translate(203.51323, 204.213791)"><g><path d="M 2.265625 -7.453125 C 3.148438 -8.085938 4.003906 -8.425781 4.828125 -8.46875 C 5.523438 -8.46875 6.054688 -8.378906 6.421875 -8.203125 C 6.796875 -8.035156 7.097656 -7.796875 7.328125 -7.484375 C 7.566406 -7.179688 7.6875 -6.75 7.6875 -6.1875 L 7.6875 0 L 6.59375 0 L 6.59375 -5.90625 C 6.59375 -6.320312 6.503906 -6.640625 6.328125 -6.859375 C 5.960938 -7.273438 5.410156 -7.484375 4.671875 -7.484375 C 3.941406 -7.453125 3.140625 -7.21875 2.265625 -6.78125 L 2.265625 0 L 1.171875 0 L 1.171875 -12.53125 L 2.265625 -12.625 Z M 2.265625 -7.453125 "/></g></g></g><g fill="#ffffff" fill-opacity="1"><g transform="translate(211.876412, 204.213791)"><g/></g></g><g fill="#ffffff" fill-opacity="1"><g transform="translate(216.907779, 204.213791)"><g><path d="M 1.90625 -6.15625 C 1.789062 -6.4375 1.734375 -6.75 1.734375 -7.09375 C 1.734375 -7.757812 1.9375 -8.304688 2.34375 -8.734375 C 2.757812 -9.160156 3.269531 -9.375 3.875 -9.375 C 4.488281 -9.375 5 -9.179688 5.40625 -8.796875 C 5.820312 -8.410156 6.03125 -7.878906 6.03125 -7.203125 C 6.03125 -6.523438 5.816406 -5.976562 5.390625 -5.5625 C 4.972656 -5.144531 4.46875 -4.9375 3.875 -4.9375 C 2.894531 -4.9375 2.238281 -5.34375 1.90625 -6.15625 Z M 1.90625 -6.15625 "/></g></g></g></svg>